<svg xmlns="http://www.w3.org/2000/svg" width="28" height="28" viewBox="0 0 28 28">
    <g fill="none" fill-rule="nonzero">
        <path fill="#2A2A2A" d="M22.828 22.142a.485.485 0 1 0-.686.686l1.03 1.03a.484.484 0 0 0 .686 0 .485.485 0 0 0 0-.686l-1.03-1.03zM23.172 4.142l-1.03 1.03a.485.485 0 1 0 .686.686l1.03-1.03a.485.485 0 1 0-.686-.686z"/>
        <path fill="#F5A623" d="M14.5 26c-.276 0-.5.18-.5.4v1.2c0 .22.224.4.5.4s.5-.18.5-.4v-1.2c0-.22-.224-.4-.5-.4zM27.6 14h-1.2c-.221 0-.4.224-.4.5s.179.5.4.5h1.2c.221 0 .4-.224.4-.5s-.179-.5-.4-.5z"/>
        <path fill="#2A2A2A" d="M5.172 5.858a.484.484 0 0 0 .686 0 .485.485 0 0 0 0-.686l-1.03-1.03a.485.485 0 1 0-.686.686l1.03 1.03zM5.172 22.142l-1.03 1.03a.485.485 0 1 0 .686.686l1.03-1.03a.485.485 0 1 0-.686-.686z"/>
        <path fill="#F5A623" d="M14.5 2c.276 0 .5-.18.5-.4V.4c0-.22-.224-.4-.5-.4s-.5.18-.5.4v1.2c0 .22.224.4.5.4zM1.6 14H.4c-.221 0-.4.224-.4.5s.179.5.4.5h1.2c.221 0 .4-.224.4-.5s-.179-.5-.4-.5z"/>
        <rect width="17" height="17" x="5.5" y="5.5" fill="#F5A623" stroke="#2A2A2A" rx="8.5"/>
        <rect width="13" height="13" x="7.5" y="7.5" fill="#F8E71C" stroke="#F5C22A" rx="6.5"/>
    </g>
</svg>
