<svg xmlns="http://www.w3.org/2000/svg" width="24" height="23" viewBox="0 0 24 23">
    <path fill="#FFF" fill-rule="evenodd" d="M22.356 8.488h-5.448a.817.817 0 0 0-.822.811c0 .449.368.812.822.812h5.448v3.3h-12.31L6.501 5.188h15.854v3.3zm-9.319 10.769c.593 0 1.074.475 1.074 1.06 0 .586-.48 1.06-1.074 1.06a1.067 1.067 0 0 1-1.074-1.06c0-.585.48-1.06 1.074-1.06zm7.961 0c.593 0 1.074.475 1.074 1.06 0 .586-.48 1.06-1.074 1.06a1.067 1.067 0 0 1-1.074-1.06c0-.585.481-1.06 1.074-1.06zm2.18-15.692H5.803L4.802 1.243A.82.82 0 0 0 4.234.77L1.01.02a.822.822 0 0 0-.988.605.81.81 0 0 0 .612.976l2.818.654L10.667 19a2.64 2.64 0 0 0-.352 1.318c0 1.48 1.22 2.683 2.718 2.683 1.499 0 2.718-1.204 2.718-2.683a2.64 2.64 0 0 0-.216-1.048h2.96a2.64 2.64 0 0 0-.217 1.048c0 1.48 1.22 2.683 2.719 2.683 1.498 0 2.718-1.204 2.718-2.683 0-1.48-1.22-2.684-2.718-2.684l-9.127.013-1.126-2.613h12.434a.817.817 0 0 0 .822-.81V4.376a.817.817 0 0 0-.822-.812z"/>
</svg>
