<svg width="25" height="25" viewBox="0 0 25 25" fill="none" xmlns="http://www.w3.org/2000/svg"><path d="M14.9995 19.9991V15.4991C14.9995 15.3001 14.9204 15.1094 14.7798 14.9687C14.6391 14.8281 14.4484 14.7491 14.2495 14.7491H11.2495C11.0505 14.7491 10.8598 14.8281 10.7191 14.9687C10.5785 15.1094 10.4995 15.3001 10.4995 15.4991V19.9991C10.4995 20.198 10.4204 20.3888 10.2798 20.5294C10.1392 20.6701 9.94844 20.7491 9.74954 20.7491L5.25009 20.7497C5.15159 20.7498 5.05406 20.7304 4.96305 20.6927C4.87205 20.655 4.78936 20.5998 4.7197 20.5301C4.65005 20.4605 4.5948 20.3778 4.5571 20.2868C4.5194 20.1958 4.5 20.0982 4.5 19.9997V11.3316C4.5 11.2271 4.52183 11.1238 4.5641 11.0282C4.60637 10.9326 4.66814 10.847 4.74545 10.7767L12.2449 3.95778C12.383 3.83226 12.5629 3.7627 12.7495 3.7627C12.936 3.76269 13.1159 3.83223 13.254 3.95775L20.7545 10.7767C20.8318 10.847 20.8936 10.9326 20.9359 11.0282C20.9782 11.1238 21 11.2271 21 11.3316V19.9997C21 20.0982 20.9806 20.1958 20.9429 20.2868C20.9052 20.3778 20.85 20.4605 20.7803 20.5301C20.7106 20.5998 20.628 20.655 20.5369 20.6927C20.4459 20.7304 20.3484 20.7498 20.2499 20.7497L15.7494 20.7492C15.5505 20.7491 15.3597 20.6701 15.2191 20.5294C15.0785 20.3888 14.9994 20.198 14.9995 19.9991Z" stroke="#747474" stroke-width="1.7" stroke-linecap="round" stroke-linejoin="round"></path></svg>