<svg width="25" height="25" viewBox="0 0 25 25" fill="none" xmlns="http://www.w3.org/2000/svg"><path d="M22.5673 11.9172L20.25 13.0759L17.25 7.33067L19.5909 6.16024C19.7667 6.0723 19.9701 6.05695 20.1572 6.11749C20.3443 6.17802 20.5001 6.30961 20.5911 6.4839L22.8967 10.8992C22.9428 10.9875 22.9708 11.0841 22.9792 11.1834C22.9876 11.2826 22.9761 11.3825 22.9454 11.4773C22.9148 11.5721 22.8655 11.6598 22.8006 11.7353C22.7357 11.8108 22.6564 11.8727 22.5673 11.9172V11.9172Z" stroke="#747474" stroke-width="1.7" stroke-linecap="round" stroke-linejoin="round"></path><path d="M3.74945 12.9753L1.43217 11.8166C1.34308 11.7721 1.26376 11.7103 1.19883 11.6347C1.13391 11.5592 1.08467 11.4715 1.05401 11.3767C1.02334 11.282 1.01186 11.182 1.02023 11.0828C1.0286 10.9835 1.05666 10.887 1.10276 10.7987L3.40835 6.38332C3.49936 6.20902 3.65518 6.07744 3.84226 6.0169C4.02934 5.95636 4.23271 5.97171 4.40858 6.05965L6.74945 7.23008L3.74945 12.9753Z" stroke="#747474" stroke-width="1.7" stroke-linecap="round" stroke-linejoin="round"></path><path d="M20.25 13.0761L18.75 14.8309L15.3003 18.2806C15.2087 18.3722 15.095 18.4385 14.9701 18.4731C14.8453 18.5076 14.7137 18.5093 14.588 18.4779L9.15458 17.1195C9.05266 17.094 8.95724 17.0474 8.87448 16.9827L3.75 12.9756" stroke="#747474" stroke-width="1.7" stroke-linecap="round" stroke-linejoin="round"></path><path d="M18.7488 14.8306L14.6238 11.8306L13.4238 12.7306C12.9045 13.12 12.2729 13.3306 11.6238 13.3306C10.9747 13.3306 10.3431 13.12 9.82382 12.7306L9.31562 12.3494C9.22966 12.2849 9.15856 12.2028 9.10712 12.1084C9.05569 12.0141 9.02513 11.9098 9.01751 11.8026C9.00989 11.6954 9.0254 11.5878 9.06297 11.4872C9.10055 11.3865 9.15931 11.2951 9.2353 11.2191L12.9041 7.55024C12.9738 7.48059 13.0565 7.42535 13.1475 7.38766C13.2385 7.34997 13.336 7.33057 13.4345 7.33057H17.2488" stroke="#747474" stroke-width="1.7" stroke-linecap="round" stroke-linejoin="round"></path><path d="M6.80469 7.23047L11.6159 5.82783C11.7878 5.77772 11.9719 5.79075 12.135 5.86455L15.3758 7.33095" stroke="#747474" stroke-width="1.7" stroke-linecap="round" stroke-linejoin="round"></path><path d="M10.5 20.4558L7.67443 19.7494C7.55977 19.7207 7.4535 19.6654 7.3643 19.5878L5.25 17.75" stroke="#747474" stroke-width="1.7" stroke-linecap="round" stroke-linejoin="round"></path></svg>