<svg xmlns="http://www.w3.org/2000/svg" xmlns:xlink="http://www.w3.org/1999/xlink" viewBox="0 0 1920 1080" width="1920" height="1080" preserveAspectRatio="xMidYMid meet" style="width: 100%; height: 100%; transform: translate3d(0px, 0px, 0px); content-visibility: visible;"><defs><clipPath id="__lottie_element_2"><rect width="1920" height="1080" x="0" y="0"></rect></clipPath></defs><g clip-path="url(#__lottie_element_2)"><g transform="matrix(0.994686484336853,0.10295043140649796,-0.10295043140649796,0.994686484336853,932.5466918945312,638.25634765625)" opacity="1" style="display: block;"><g opacity="1" transform="matrix(1,0,0,1,-21,-70)"><path fill="rgb(33,150,83)" fill-opacity="1" d=" M72.70201873779297,0 C72.70201873779297,0 72.70201873779297,0 72.70201873779297,0 C72.70201873779297,27.232641220092773 50.591224670410156,49.34343338012695 23.358585357666016,49.34343338012695 C23.358585357666016,49.34343338012695 -23.358585357666016,49.34343338012695 -23.358585357666016,49.34343338012695 C-50.591224670410156,49.34343338012695 -72.70201873779297,27.232641220092773 -72.70201873779297,0 C-72.70201873779297,0 -72.70201873779297,0 -72.70201873779297,0 C-72.70201873779297,-27.232641220092773 -50.591224670410156,-49.34343338012695 -23.358585357666016,-49.34343338012695 C-23.358585357666016,-49.34343338012695 23.358585357666016,-49.34343338012695 23.358585357666016,-49.34343338012695 C50.591224670410156,-49.34343338012695 72.70201873779297,-27.232641220092773 72.70201873779297,0z"></path></g></g><g transform="matrix(0.994686484336853,0.10295043140649796,-0.10295043140649796,0.994686484336853,828.55224609375,419.65496826171875)" opacity="1" style="display: block;"><g opacity="1" transform="matrix(1,0,0,1,110.5,136.5)"><path fill="rgb(33,150,83)" fill-opacity="1" d=" M154.06060791015625,0 C154.06060791015625,0 154.06060791015625,0 154.06060791015625,0 C154.06060791015625,27.232641220092773 131.94981384277344,49.34343338012695 104.7171630859375,49.34343338012695 C104.7171630859375,49.34343338012695 11.282833099365234,49.34343338012695 11.282833099365234,49.34343338012695 C-15.949808120727539,49.34343338012695 -38.06060028076172,27.232641220092773 -38.06060028076172,0 C-38.06060028076172,0 -38.06060028076172,0 -38.06060028076172,0 C-38.06060028076172,-27.232641220092773 -15.949808120727539,-49.34343338012695 11.282833099365234,-49.34343338012695 C11.282833099365234,-49.34343338012695 104.7171630859375,-49.34343338012695 104.7171630859375,-49.34343338012695 C131.94981384277344,-49.34343338012695 154.06060791015625,-27.232641220092773 154.06060791015625,0z"></path></g></g><g transform="matrix(0.994686484336853,0.10295043140649796,-0.10295043140649796,0.994686484336853,621.4328002929688,531.6530151367188)" opacity="1" style="display: block;"><g opacity="1" transform="matrix(1,0,0,1,312.5,-45.5)"><path fill="rgb(33,150,83)" fill-opacity="1" d=" M40,0 C40,0 40,0 40,0 C40,22.076000213623047 22.076000213623047,40 0,40 C0,40 0,40 0,40 C-22.076000213623047,40 -40,22.076000213623047 -40,0 C-40,0 -40,0 -40,0 C-40,-22.076000213623047 -22.076000213623047,-40 0,-40 C0,-40 0,-40 0,-40 C22.076000213623047,-40 40,-22.076000213623047 40,0z"></path></g></g><g transform="matrix(0.994686484336853,0.10295043140649796,-0.10295043140649796,0.994686484336853,1246.839599609375,392.6208801269531)" opacity="1" style="display: block;"><g opacity="1" transform="matrix(1,0,0,1,-232,145.5)"><path fill="rgb(33,150,83)" fill-opacity="1" d=" M49.34343338012695,0 C49.34343338012695,0 49.34343338012695,0 49.34343338012695,0 C49.34343338012695,26.974809646606445 27.441980361938477,48.87626266479492 0.46717071533203125,48.87626266479492 C0.46717071533203125,48.87626266479492 -0.46717071533203125,48.87626266479492 -0.46717071533203125,48.87626266479492 C-27.441980361938477,48.87626266479492 -49.34343338012695,26.974809646606445 -49.34343338012695,0 C-49.34343338012695,0 -49.34343338012695,0 -49.34343338012695,0 C-49.34343338012695,-26.974809646606445 -27.441980361938477,-48.87626266479492 -0.46717071533203125,-48.87626266479492 C-0.46717071533203125,-48.87626266479492 0.46717071533203125,-48.87626266479492 0.46717071533203125,-48.87626266479492 C27.441980361938477,-48.87626266479492 49.34343338012695,-26.974809646606445 49.34343338012695,0z"></path></g></g></g></svg>