<svg xmlns="http://www.w3.org/2000/svg" width="28" height="28" viewBox="0 0 28 28">
    <g fill="none" fill-rule="nonzero">
        <path fill="#6797D1" d="M18.733 7.558A8.42 8.42 0 0 0 16.824 6c.702 3.27-.328 6.72-2.772 9.039A9.288 9.288 0 0 1 5 17.223a8.55 8.55 0 0 0 1.394 2.046 8.315 8.315 0 0 0 5.875 2.725c2.252.084 4.4-.737 6.048-2.301a8.596 8.596 0 0 0 2.678-5.98 8.618 8.618 0 0 0-2.262-6.155z"/>
        <path fill="#6797D1" d="M15.771 17.398c2.733-2.62 4.74-8.719 1.724-11.398.708 1.65-.652 7.879-3.117 9.05-2.464 1.17-6.194 2.823-9.378 2.348 0 1.222 7.755 2.892 10.771 0z"/>
        <path fill="#475993" d="M20.38 7.262a9.693 9.693 0 0 0-3.3-2.224.514.514 0 0 0-.535.09.465.465 0 0 0-.131.506c1.135 3.14.231 6.635-2.303 8.9-2.534 2.267-6.23 2.888-9.417 1.583a.515.515 0 0 0-.535.09.465.465 0 0 0-.132.506 9.225 9.225 0 0 0 2.084 3.312c1.777 1.827 4.19 2.882 6.793 2.97.117.003.233.005.35.005 2.476 0 4.824-.886 6.644-2.514 1.906-1.704 3.005-4.018 3.096-6.516.09-2.498-.838-4.88-2.615-6.708zm-1.161 12.526a8.9 8.9 0 0 1-6.28 2.251c-2.338-.078-4.504-1.025-6.1-2.666a8.362 8.362 0 0 1-1.447-2.003c3.278.921 6.862.133 9.398-2.136 2.538-2.27 3.608-5.644 2.879-8.845.73.41 1.394.92 1.982 1.525 1.595 1.641 2.429 3.78 2.348 6.023-.082 2.242-1.07 4.32-2.78 5.85z"/>
        <path fill="#2A2A2A" d="M22.828 22.142a.485.485 0 1 0-.686.686l1.03 1.03a.484.484 0 0 0 .686 0 .485.485 0 0 0 0-.686l-1.03-1.03zM23.172 4.142l-1.03 1.03a.485.485 0 1 0 .686.686l1.03-1.03a.485.485 0 1 0-.686-.686zM14.5 26c-.276 0-.5.18-.5.4v1.2c0 .22.224.4.5.4s.5-.18.5-.4v-1.2c0-.22-.224-.4-.5-.4zM27.6 14h-1.2c-.221 0-.4.224-.4.5s.179.5.4.5h1.2c.221 0 .4-.224.4-.5s-.179-.5-.4-.5zM5.172 5.858a.484.484 0 0 0 .686 0 .485.485 0 0 0 0-.686l-1.03-1.03a.485.485 0 1 0-.686.686l1.03 1.03zM5.172 22.142l-1.03 1.03a.485.485 0 1 0 .686.686l1.03-1.03a.485.485 0 1 0-.686-.686zM14.5 2c.276 0 .5-.18.5-.4V.4c0-.22-.224-.4-.5-.4s-.5.18-.5.4v1.2c0 .22.224.4.5.4zM1.6 14H.4c-.221 0-.4.224-.4.5s.179.5.4.5h1.2c.221 0 .4-.224.4-.5s-.179-.5-.4-.5z"/>
    </g>
</svg>
