<svg class="themeIcon" xmlns="http://www.w3.org/2000/svg" width="18" height="18" viewBox="0 0 18 18" style="transition: none; line-height: 20px; border-width: 0px; margin: 0px 10px 0px 0px; padding: 0px; letter-spacing: 0px; font-weight: 500; font-size: 14px;"><path fill-rule="nonzero" d="M3.2 6.933c1.244 2.49 3.378 4.534 5.867 5.867l1.955-1.956c.267-.266.622-.355.89-.177.977.355 2.044.533 3.2.533.532 0 .888.356.888.889v3.022c0 .533-.356.889-.889.889C6.756 16 0 9.244 0 .889 0 .356.356 0 .889 0H4c.533 0 .889.356.889.889 0 1.067.178 2.133.533 3.2.09.267 0 .622-.178.889L3.2 6.933z" style="transition: none; line-height: 20px; border-width: 0px; margin: 0px; padding: 0px; letter-spacing: 0px; font-weight: 500; font-size: 14px;"></path></svg>