<svg width="25" height="25" viewBox="0 0 25 25" fill="none" xmlns="http://www.w3.org/2000/svg"><path d="M7.75665 14.1826C8.45233 15.6048 9.60519 16.7525 11.0306 17.4416C11.1349 17.4911 11.2502 17.5125 11.3653 17.5038C11.4804 17.4951 11.5912 17.4565 11.6869 17.392L13.7857 15.9925C13.8785 15.9306 13.9853 15.8928 14.0964 15.8826C14.2075 15.8724 14.3194 15.8901 14.422 15.934L18.3484 17.6168C18.4818 17.6734 18.5932 17.7719 18.6657 17.8974C18.7383 18.0228 18.7681 18.1684 18.7507 18.3123C18.6266 19.2834 18.1528 20.176 17.4179 20.823C16.6831 21.4699 15.7377 21.8268 14.7587 21.8268C11.7349 21.8268 8.83492 20.6256 6.69677 18.4875C4.55862 16.3493 3.35742 13.4494 3.35742 10.4256C3.35747 9.44656 3.71438 8.50113 4.3613 7.76631C5.00823 7.03148 5.90082 6.55766 6.87194 6.43355C7.01581 6.41614 7.16144 6.44596 7.28689 6.51851C7.41234 6.59106 7.51081 6.70242 7.56747 6.8358L9.25172 10.7657C9.29528 10.8674 9.31303 10.9782 9.30339 11.0884C9.29374 11.1985 9.25701 11.3046 9.19644 11.3972L7.80177 13.5282C7.73829 13.624 7.70077 13.7347 7.69286 13.8494C7.68495 13.9641 7.70693 14.0789 7.75665 14.1826V14.1826Z" stroke="#747474" stroke-width="1.7" stroke-linecap="round" stroke-linejoin="round"></path><path d="M17.8532 12.4491H12.9926C12.8755 12.4491 12.7631 12.4025 12.6802 12.3197C12.5973 12.2368 12.5508 12.1244 12.5508 12.0072V7.14665C12.5508 6.45032 12.6879 5.76082 12.9544 5.1175C13.2209 4.47418 13.6114 3.88965 14.1038 3.39728C14.5962 2.9049 15.1807 2.51433 15.824 2.24786C16.4674 1.98139 17.1569 1.84424 17.8532 1.84424H17.8532C18.5495 1.84424 19.239 1.98139 19.8823 2.24786C20.5257 2.51433 21.1102 2.90491 21.6026 3.39728C22.0949 3.88966 22.4855 4.47419 22.752 5.11751C23.0185 5.76083 23.1556 6.45033 23.1556 7.14666V7.14667C23.1556 8.55295 22.597 9.90164 21.6026 10.896C20.6082 11.8904 19.2595 12.4491 17.8532 12.4491Z" stroke="#747474" stroke-width="1.7" stroke-linecap="round" stroke-linejoin="round"></path><path d="M16 6H17" stroke="#747474" stroke-width="1.7" stroke-linecap="round" stroke-linejoin="round"></path><path d="M16.0117 8.29883H19.4698" stroke="#747474" stroke-width="1.7" stroke-linecap="round" stroke-linejoin="round"></path></svg>