<svg xmlns="http://www.w3.org/2000/svg" width="29" height="19" viewBox="0 0 29 19">
    <g fill="none" fill-rule="nonzero">
        <path fill="#F5C22A" d="M14.017 6c-3.47 0-6.284 3.134-6.284 7H20.3c0-3.866-2.813-7-6.283-7z"/>
        <g fill="#231F20">
            <path d="M28.377 11.762h-7.04c-.287-3.763-3.258-6.733-6.868-6.733-3.611 0-6.582 2.97-6.868 6.733H.56c-.31 0-.561.267-.561.596 0 .33.251.596.56.596h27.817c.31 0 .56-.267.56-.596 0-.33-.25-.596-.56-.596zm-19.65 0c.282-3.105 2.75-5.54 5.742-5.54s5.46 2.435 5.742 5.54H8.726zM25.462 14.753H3.475c-.31 0-.56.267-.56.597 0 .329.25.596.56.596h21.987c.31 0 .56-.267.56-.596 0-.33-.25-.597-.56-.597zM22.435 17.745H6.502c-.31 0-.56.267-.56.596 0 .33.25.596.56.596h15.933c.31 0 .56-.267.56-.596 0-.33-.25-.596-.56-.596zM14.468 3.574c.31 0 .561-.267.561-.597V.672c0-.33-.251-.596-.56-.596-.31 0-.561.267-.561.596v2.305c0 .33.25.597.56.597zM10.248 4.1a.56.56 0 0 0 .509.345.53.53 0 0 0 .235-.055.613.613 0 0 0 .273-.792l-.913-2.091a.547.547 0 0 0-.744-.29.613.613 0 0 0-.273.792l.913 2.09zM5.717 5.268c1.822 1.639 1.747 1.63 2.017 1.63.52 0 .76-.694.362-1.052L6.44 4.357a.538.538 0 0 0-.79.07c-.2.252-.17.628.066.84z"/>
            <path d="M3.724 9.845l2.09.609c.05.014.1.021.149.021a.567.567 0 0 0 .54-.439c.082-.317-.094-.645-.392-.732l-2.09-.61c-.3-.086-.608.1-.69.418-.081.318.094.646.393.733zM18.18 4.445a.56.56 0 0 0 .51-.345l.911-2.091a.613.613 0 0 0-.272-.792.547.547 0 0 0-.745.29l-.912 2.09c-.173.397.1.848.508.848zM21.203 6.897a.539.539 0 0 0 .362-.14l1.655-1.49a.623.623 0 0 0 .066-.84.538.538 0 0 0-.79-.07l-1.655 1.489a.623.623 0 0 0-.066.84c.111.14.27.211.428.211zM22.974 10.475c.104 0-.038.033 2.239-.63.298-.087.474-.415.392-.733-.081-.317-.39-.504-.688-.417l-2.091.609c-.627.182-.502 1.171.148 1.171z"/>
        </g>
    </g>
</svg>
